<?xml version="1.0" standalone="no"?>
<!DOCTYPE svg PUBLIC "-//W3C//DTD SVG 20010904//EN"
 "http://www.w3.org/TR/2001/REC-SVG-20010904/DTD/svg10.dtd">
<svg version="1.0" xmlns="http://www.w3.org/2000/svg"
 width="2138.000000pt" height="1289.000000pt" viewBox="0 0 2138.000000 1289.000000"
 preserveAspectRatio="xMidYMid meet">

<g transform="translate(0.000000,1289.000000) scale(0.100000,-0.100000)"
fill="#000000" stroke="none">
<path d="M2475 12600 c-252 -20 -397 -158 -426 -405 -11 -99 -11 -10141 0
-10372 5 -106 13 -168 21 -178 11 -13 378 -15 3403 -17 l3391 -3 6 -30 c15
-70 78 -145 122 -145 19 0 17 5 -15 37 -38 38 -49 67 -21 56 12 -4 15 0 12 18
-2 14 -12 25 -26 29 -47 10 -25 25 48 33 106 10 2602 4 2619 -7 11 -7 8 -12
-13 -23 -28 -15 -39 -60 -11 -49 28 10 16 -21 -22 -58 -33 -32 -35 -36 -16
-36 45 0 108 75 123 145 l6 30 2772 3 c2214 2 2772 0 2772 -10 6 -158 -8 -449
-21 -462 -3 -3 -365 -6 -805 -6 -2671 -1 -2878 -2 -2892 -13 -9 -7 -20 -6 -37
3 -19 10 -31 11 -48 3 -14 -7 -30 -8 -38 -2 -23 14 -6277 10 -6300 -4 -15 -9
-23 -9 -38 0 -14 9 -389 12 -1497 12 -814 0 -1726 0 -2029 0 -302 0 -919 1
-1370 1 -779 0 -1164 4 -1230 15 -17 3 -61 12 -100 21 -126 28 -168 34 -285
39 -134 7 -151 11 -143 31 4 10 -3 14 -23 15 -16 0 -64 4 -107 8 -83 7 -108
-1 -55 -18 119 -37 349 -104 383 -111 22 -5 78 -18 125 -29 47 -12 96 -23 109
-27 14 -3 20 -9 15 -14 -10 -9 -239 -27 -444 -34 -159 -6 -230 -15 -230 -29 0
-6 3 -7 6 -4 4 3 15 2 25 -3 24 -13 94 -19 384 -30 132 -5 258 -12 280 -15
148 -21 1455 -24 8548 -23 4294 0 7811 -2 7814 -6 4 -4 8 -78 10 -164 1 -86 7
-177 14 -202 41 -158 154 -292 297 -355 45 -20 56 -45 20 -45 -39 0 -6 -18 47
-25 28 -4 742 -9 1587 -10 l1537 -4 27 22 c15 11 62 35 104 52 130 52 234 150
290 270 52 113 50 2 50 2714 0 2266 2 2526 15 2542 14 14 16 70 16 424 1 357
-1 408 -15 418 -14 11 -16 85 -19 637 -2 359 -8 644 -14 670 -35 161 -210 340
-365 374 -16 4 -28 13 -28 21 0 13 -140 15 -1145 15 l-1145 0 -2 1978 -3 1977
-23 68 c-25 74 -83 153 -150 204 -65 50 -143 74 -272 84 -136 10 -15441 9
-15575 -1z m15760 -2400 l0 -1905 -295 -3 c-241 -2 -297 -5 -306 -16 -5 -8
-36 -24 -67 -35 -117 -41 -229 -142 -286 -258 -49 -99 -54 -145 -53 -425 1
-155 -3 -260 -8 -263 -13 -8 -13 -292 0 -300 13 -8 13 -232 0 -240 -14 -8 -14
-542 0 -550 6 -3 10 -30 10 -60 0 -30 -4 -57 -10 -60 -14 -8 -14 -537 0 -551
7 -7 9 -572 8 -1675 l-3 -1664 -7437 -3 -7438 -2 0 4960 0 4960 7943 -2 7942
-3 0 -1905z m65 -2160 c15 -15 20 -33 20 -68 0 -62 42 -125 103 -153 40 -18
76 -19 783 -19 534 0 751 3 775 12 81 27 128 91 129 174 0 76 -3 76 336 72
282 -3 302 -4 346 -25 66 -30 129 -92 164 -160 l29 -58 0 -3595 0 -3595 -23
-46 c-35 -71 -84 -122 -154 -160 l-63 -34 -1530 0 -1530 0 -56 27 c-62 30
-125 93 -161 160 l-23 43 -3 3585 c-2 3334 -1 3589 15 3639 27 88 126 182 223
212 14 4 154 8 313 8 274 1 288 0 307 -19z m-935 -3820 c0 -2035 -1 -3700 -2
-3700 -1 0 -10 17 -20 38 -17 35 -18 194 -18 3667 0 3591 0 3630 20 3663 10
17 19 32 20 32 0 0 0 -1665 0 -3700z m3722 3648 c17 -51 18 -190 18 -3648 0
-3458 -1 -3597 -18 -3648 -23 -64 -42 -70 -30 -9 10 54 11 7246 0 7310 -11 64
6 61 30 -5z m-10937 -6013 c34 -18 35 -21 18 -59 -10 -20 -19 -26 -35 -23 -33
6 -51 -19 -29 -41 16 -16 19 -15 41 11 13 15 29 27 34 27 6 0 15 9 21 20 6 11
19 24 30 30 17 9 25 6 46 -15 l26 -26 30 28 29 28 35 -38 c27 -29 36 -34 40
-22 4 8 14 15 24 15 10 0 20 7 24 15 3 8 10 15 16 15 16 0 12 -30 -5 -36 -21
-9 -19 -31 5 -44 20 -11 28 -40 11 -40 -6 0 -17 10 -25 21 -15 21 -54 20 -41
-1 3 -5 1 -10 -4 -10 -6 0 -11 5 -11 10 0 15 -26 12 -40 -5 -18 -21 -40 -19
-68 8 l-24 22 -15 -22 c-18 -26 -55 -30 -73 -8 -7 8 -18 15 -25 15 -7 0 -18
-7 -25 -15 -15 -18 -76 -20 -87 -3 -4 7 -8 41 -9 76 -2 56 0 64 20 72 30 12
33 12 66 -5z m524 -10 c14 -13 26 -28 26 -32 -1 -17 -28 -43 -54 -53 -15 -6
-30 -19 -33 -30 -3 -11 -12 -20 -19 -20 -11 0 -14 17 -14 70 0 64 2 72 23 80
34 14 42 12 71 -15z m-976 3 c5 -7 15 -30 23 -51 16 -45 37 -45 53 -2 20 55
33 71 47 58 15 -15 -5 -69 -32 -83 -10 -6 -19 -20 -21 -32 -4 -29 -38 -38 -38
-10 0 10 -9 27 -20 37 -20 18 -20 17 -20 -19 0 -26 -4 -36 -12 -33 -7 2 -12
15 -10 28 1 13 2 45 2 72 0 47 9 58 28 35z m762 -13 c0 -7 -7 -18 -15 -25 -12
-10 -16 -9 -21 4 -9 24 3 47 21 40 8 -3 15 -12 15 -19z m-530 -40 c12 -14 16
-13 41 11 28 27 29 27 49 9 28 -25 25 -35 -9 -29 -33 7 -45 -6 -36 -37 6 -17
13 -20 36 -15 31 6 37 -2 17 -22 -18 -18 -43 -15 -64 9 -16 18 -20 19 -30 5
-15 -21 -74 -33 -74 -16 0 8 -9 11 -25 8 -18 -4 -25 -1 -25 11 0 21 20 52 20
32 0 -8 7 -11 20 -8 15 4 20 0 20 -14 0 -10 7 -19 15 -19 12 0 15 9 12 38 -2
28 -7 36 -20 34 -20 -3 -22 9 -5 26 12 12 36 3 58 -23z m936 -10 c18 -27 9
-54 -28 -79 -21 -15 -24 -14 -50 11 -35 33 -35 49 -2 85 30 31 52 26 80 -17z
m-116 21 c0 -8 -4 -18 -10 -21 -5 -3 -10 -22 -10 -41 0 -50 -25 -39 -26 12 -1
25 4 43 14 52 21 16 32 15 32 -2z"/>
<path d="M10093 1824 c-7 -18 14 -35 34 -27 7 3 13 14 13 24 0 24 -38 26 -47
3z"/>
<path d="M10222 1778 c-18 -18 -14 -36 9 -43 30 -10 57 18 39 39 -15 19 -32
20 -48 4z"/>
<path d="M10334 1775 c-4 -9 0 -23 9 -32 21 -21 49 -9 45 19 -4 28 -45 38 -54
13z"/>
<path d="M10617 1833 c-13 -12 -7 -44 8 -49 24 -10 47 14 34 37 -10 19 -30 25
-42 12z"/>
<path d="M10794 1775 c-8 -21 2 -45 19 -45 8 0 20 7 27 15 10 12 10 18 0 30
-7 8 -19 15 -27 15 -7 0 -16 -7 -19 -15z"/>
</g>
</svg>
